<svg width="1024" height="753" viewBox="0 0 1024 753" fill="none" xmlns="http://www.w3.org/2000/svg">
<g clip-path="url(#clip0_122_130)">
<rect width="1024" height="753" fill="#121214"/>
<g opacity="0.2" filter="url(#filter0_f_122_130)">
<ellipse cx="533.5" cy="115" rx="670.5" ry="350" fill="#35875D"/>
</g>
<path d="M54.0349 351C55.5302 351 56.6622 351.63 57.4308 352.891C58.2134 354.138 58.6047 355.953 58.6047 358.336C58.6047 360.719 58.2134 362.541 57.4308 363.802C56.6622 365.063 55.5302 365.693 54.0349 365.693C52.5536 365.693 51.4216 365.063 50.639 363.802C49.8564 362.541 49.4651 360.719 49.4651 358.336C49.4651 355.967 49.8564 354.152 50.639 352.891C51.4216 351.63 52.5536 351 54.0349 351ZM50.9534 358.336C50.9534 360.026 51.1072 361.35 51.4146 362.306L56.0683 353.099C55.5791 352.448 54.9013 352.122 54.0349 352.122C53.0706 352.122 52.316 352.635 51.771 353.66C51.2259 354.672 50.9534 356.23 50.9534 358.336ZM54.0349 364.55C55.0131 364.55 55.7748 364.044 56.3198 363.033C56.8648 362.008 57.1373 360.442 57.1373 358.336C57.1373 356.549 56.9627 355.163 56.6133 354.18L51.9596 363.469C52.4627 364.19 53.1545 364.55 54.0349 364.55Z" fill="url(#paint0_linear_122_130)" fill-opacity="0.6"/>
<path d="M55.2926 388.135H58.3741V389.236H50.3874V388.135H53.9511V376.455L50.5551 378.471L49.9682 377.536L54.1607 374.959H55.2926V388.135Z" fill="url(#paint1_linear_122_130)" fill-opacity="0.6"/>
<path d="M54.0349 398.502C55.5302 398.502 56.6622 399.133 57.4308 400.393C58.2134 401.64 58.6047 403.455 58.6047 405.838C58.6047 408.221 58.2134 410.043 57.4308 411.304C56.6622 412.565 55.5302 413.195 54.0349 413.195C52.5536 413.195 51.4216 412.565 50.639 411.304C49.8564 410.043 49.4651 408.221 49.4651 405.838C49.4651 403.469 49.8564 401.654 50.639 400.393C51.4216 399.133 52.5536 398.502 54.0349 398.502ZM50.9534 405.838C50.9534 407.529 51.1072 408.852 51.4146 409.808L56.0683 400.601C55.5791 399.95 54.9013 399.624 54.0349 399.624C53.0706 399.624 52.316 400.137 51.771 401.162C51.2259 402.174 50.9534 403.732 50.9534 405.838ZM54.0349 412.052C55.0131 412.052 55.7748 411.546 56.3198 410.535C56.8648 409.51 57.1373 407.944 57.1373 405.838C57.1373 404.051 56.9627 402.665 56.6133 401.682L51.9596 410.971C52.4627 411.692 53.1545 412.052 54.0349 412.052Z" fill="url(#paint2_linear_122_130)" fill-opacity="0.6"/>
<path d="M55.2926 435.637H58.3741V436.738H50.3874V435.637H53.9511V423.957L50.5551 425.973L49.9682 425.038L54.1607 422.461H55.2926V435.637Z" fill="url(#paint3_linear_122_130)" fill-opacity="0.6"/>
<path d="M55.2926 459.388H58.3741V460.489H50.3874V459.388H53.9511V447.708L50.5551 449.724L49.9682 448.789L54.1607 446.212H55.2926V459.388Z" fill="url(#paint4_linear_122_130)" fill-opacity="0.6"/>
<path d="M54.0349 469.755C55.5302 469.755 56.6622 470.386 57.4308 471.646C58.2134 472.893 58.6047 474.708 58.6047 477.091C58.6047 479.474 58.2134 481.296 57.4308 482.557C56.6622 483.818 55.5302 484.448 54.0349 484.448C52.5536 484.448 51.4216 483.818 50.639 482.557C49.8564 481.296 49.4651 479.474 49.4651 477.091C49.4651 474.722 49.8564 472.907 50.639 471.646C51.4216 470.386 52.5536 469.755 54.0349 469.755ZM50.9534 477.091C50.9534 478.782 51.1072 480.105 51.4146 481.061L56.0683 471.854C55.5791 471.203 54.9013 470.878 54.0349 470.878C53.0706 470.878 52.316 471.39 51.771 472.415C51.2259 473.427 50.9534 474.985 50.9534 477.091ZM54.0349 483.305C55.0131 483.305 55.7748 482.8 56.3198 481.788C56.8648 480.763 57.1373 479.197 57.1373 477.091C57.1373 475.304 56.9627 473.919 56.6133 472.935L51.9596 482.225C52.4627 482.945 53.1545 483.305 54.0349 483.305Z" fill="url(#paint5_linear_122_130)" fill-opacity="0.6"/>
<path d="M55.2926 506.89H58.3741V507.992H50.3874V506.89H53.9511V495.21L50.5551 497.226L49.9682 496.291L54.1607 493.714H55.2926V506.89Z" fill="url(#paint6_linear_122_130)" fill-opacity="0.6"/>
<path d="M54.0349 517.257C55.5302 517.257 56.6622 517.888 57.4308 519.149C58.2134 520.396 58.6047 522.211 58.6047 524.594C58.6047 526.977 58.2134 528.798 57.4308 530.059C56.6622 531.32 55.5302 531.95 54.0349 531.95C52.5536 531.95 51.4216 531.32 50.639 530.059C49.8564 528.798 49.4651 526.977 49.4651 524.594C49.4651 522.224 49.8564 520.409 50.639 519.149C51.4216 517.888 52.5536 517.257 54.0349 517.257ZM50.9534 524.594C50.9534 526.284 51.1072 527.607 51.4146 528.563L56.0683 519.356C55.5791 518.705 54.9013 518.38 54.0349 518.38C53.0706 518.38 52.316 518.892 51.771 519.918C51.2259 520.929 50.9534 522.488 50.9534 524.594ZM54.0349 530.807C55.0131 530.807 55.7748 530.302 56.3198 529.29C56.8648 528.265 57.1373 526.699 57.1373 524.594C57.1373 522.806 56.9627 521.421 56.6133 520.437L51.9596 529.727C52.4627 530.447 53.1545 530.807 54.0349 530.807Z" fill="url(#paint7_linear_122_130)" fill-opacity="0.6"/>
<path d="M54.0349 541.008C55.5302 541.008 56.6622 541.639 57.4308 542.9C58.2134 544.147 58.6047 545.962 58.6047 548.345C58.6047 550.728 58.2134 552.549 57.4308 553.81C56.6622 555.071 55.5302 555.701 54.0349 555.701C52.5536 555.701 51.4216 555.071 50.639 553.81C49.8564 552.549 49.4651 550.728 49.4651 548.345C49.4651 545.975 49.8564 544.16 50.639 542.9C51.4216 541.639 52.5536 541.008 54.0349 541.008ZM50.9534 548.345C50.9534 550.035 51.1072 551.358 51.4146 552.314L56.0683 543.107C55.5791 542.456 54.9013 542.131 54.0349 542.131C53.0706 542.131 52.316 542.643 51.771 543.669C51.2259 544.68 50.9534 546.239 50.9534 548.345ZM54.0349 554.558C55.0131 554.558 55.7748 554.053 56.3198 553.041C56.8648 552.016 57.1373 550.451 57.1373 548.345C57.1373 546.557 56.9627 545.172 56.6133 544.188L51.9596 553.478C52.4627 554.198 53.1545 554.558 54.0349 554.558Z" fill="url(#paint8_linear_122_130)" fill-opacity="0.6"/>
<path d="M55.2926 578.143H58.3741V579.245H50.3874V578.143H53.9511V566.464L50.5551 568.48L49.9682 567.544L54.1607 564.967H55.2926V578.143Z" fill="url(#paint9_linear_122_130)" fill-opacity="0.6"/>
<path d="M54.0349 588.511C55.5302 588.511 56.6622 589.141 57.4308 590.402C58.2134 591.649 58.6047 593.464 58.6047 595.847C58.6047 598.23 58.2134 600.052 57.4308 601.312C56.6622 602.573 55.5302 603.204 54.0349 603.204C52.5536 603.204 51.4216 602.573 50.639 601.312C49.8564 600.052 49.4651 598.23 49.4651 595.847C49.4651 593.478 49.8564 591.663 50.639 590.402C51.4216 589.141 52.5536 588.511 54.0349 588.511ZM50.9534 595.847C50.9534 597.537 51.1072 598.86 51.4146 599.816L56.0683 590.61C55.5791 589.958 54.9013 589.633 54.0349 589.633C53.0706 589.633 52.316 590.145 51.771 591.171C51.2259 592.182 50.9534 593.741 50.9534 595.847ZM54.0349 602.061C55.0131 602.061 55.7748 601.555 56.3198 600.543C56.8648 599.518 57.1373 597.953 57.1373 595.847C57.1373 594.059 56.9627 592.674 56.6133 591.69L51.9596 600.98C52.4627 601.7 53.1545 602.061 54.0349 602.061Z" fill="url(#paint10_linear_122_130)" fill-opacity="0.6"/>
<path d="M55.2926 625.645H58.3741V626.747H50.3874V625.645H53.9511V613.966L50.5551 615.982L49.9682 615.046L54.1607 612.469H55.2926V625.645Z" fill="url(#paint11_linear_122_130)" fill-opacity="0.6"/>
<path d="M55.2926 649.396H58.3741V650.498H50.3874V649.396H53.9511V637.717L50.5551 639.733L49.9682 638.798L54.1607 636.221H55.2926V649.396Z" fill="url(#paint12_linear_122_130)" fill-opacity="0.6"/>
<path d="M92.9651 398.502C94.4604 398.502 95.5924 399.133 96.361 400.393C97.1436 401.64 97.5349 403.455 97.5349 405.838C97.5349 408.221 97.1436 410.043 96.361 411.304C95.5924 412.565 94.4604 413.195 92.9651 413.195C91.4838 413.195 90.3518 412.565 89.5692 411.304C88.7866 410.043 88.3953 408.221 88.3953 405.838C88.3953 403.469 88.7866 401.654 89.5692 400.393C90.3518 399.133 91.4838 398.502 92.9651 398.502ZM89.8836 405.838C89.8836 407.529 90.0374 408.852 90.3448 409.808L94.9985 400.601C94.5093 399.95 93.8315 399.624 92.9651 399.624C92.0008 399.624 91.2462 400.137 90.7012 401.162C90.1561 402.174 89.8836 403.732 89.8836 405.838ZM92.9651 412.052C93.9433 412.052 94.705 411.546 95.25 410.535C95.795 409.51 96.0675 407.944 96.0675 405.838C96.0675 404.051 95.8928 402.665 95.5435 401.682L90.8898 410.971C91.3929 411.692 92.0847 412.052 92.9651 412.052Z" fill="url(#paint13_linear_122_130)" fill-opacity="0.6"/>
<path d="M94.2228 435.637H97.3043V436.738H89.3176V435.637H92.8812V423.957L89.4853 425.973L88.8984 425.038L93.0909 422.461H94.2228V435.637Z" fill="url(#paint14_linear_122_130)" fill-opacity="0.6"/>
<path d="M92.9651 446.004C94.4604 446.004 95.5924 446.635 96.361 447.895C97.1436 449.142 97.5349 450.957 97.5349 453.34C97.5349 455.723 97.1436 457.545 96.361 458.806C95.5924 460.067 94.4604 460.697 92.9651 460.697C91.4838 460.697 90.3518 460.067 89.5692 458.806C88.7866 457.545 88.3953 455.723 88.3953 453.34C88.3953 450.971 88.7866 449.156 89.5692 447.895C90.3518 446.635 91.4838 446.004 92.9651 446.004ZM89.8836 453.34C89.8836 455.031 90.0374 456.354 90.3448 457.31L94.9985 448.103C94.5093 447.452 93.8315 447.126 92.9651 447.126C92.0008 447.126 91.2462 447.639 90.7012 448.664C90.1561 449.676 89.8836 451.234 89.8836 453.34ZM92.9651 459.554C93.9433 459.554 94.705 459.049 95.25 458.037C95.795 457.012 96.0675 455.446 96.0675 453.34C96.0675 451.553 95.8928 450.168 95.5435 449.184L90.8898 458.474C91.3929 459.194 92.0847 459.554 92.9651 459.554Z" fill="url(#paint15_linear_122_130)" fill-opacity="0.6"/>
<path d="M92.9651 469.755C94.4604 469.755 95.5924 470.386 96.361 471.646C97.1436 472.893 97.5349 474.708 97.5349 477.091C97.5349 479.474 97.1436 481.296 96.361 482.557C95.5924 483.818 94.4604 484.448 92.9651 484.448C91.4838 484.448 90.3518 483.818 89.5692 482.557C88.7866 481.296 88.3953 479.474 88.3953 477.091C88.3953 474.722 88.7866 472.907 89.5692 471.646C90.3518 470.386 91.4838 469.755 92.9651 469.755ZM89.8836 477.091C89.8836 478.782 90.0374 480.105 90.3448 481.061L94.9985 471.854C94.5093 471.203 93.8315 470.878 92.9651 470.878C92.0008 470.878 91.2462 471.39 90.7012 472.415C90.1561 473.427 89.8836 474.985 89.8836 477.091ZM92.9651 483.305C93.9433 483.305 94.705 482.8 95.25 481.788C95.795 480.763 96.0675 479.197 96.0675 477.091C96.0675 475.304 95.8928 473.919 95.5435 472.935L90.8898 482.225C91.3929 482.945 92.0847 483.305 92.9651 483.305Z" fill="url(#paint16_linear_122_130)" fill-opacity="0.6"/>
<path d="M94.2228 506.89H97.3043V507.992H89.3176V506.89H92.8812V495.21L89.4853 497.226L88.8984 496.291L93.0909 493.714H94.2228V506.89Z" fill="url(#paint17_linear_122_130)" fill-opacity="0.6"/>
<path d="M92.9651 517.257C94.4604 517.257 95.5924 517.888 96.361 519.149C97.1436 520.396 97.5349 522.211 97.5349 524.594C97.5349 526.977 97.1436 528.798 96.361 530.059C95.5924 531.32 94.4604 531.95 92.9651 531.95C91.4838 531.95 90.3518 531.32 89.5692 530.059C88.7866 528.798 88.3953 526.977 88.3953 524.594C88.3953 522.224 88.7866 520.409 89.5692 519.149C90.3518 517.888 91.4838 517.257 92.9651 517.257ZM89.8836 524.594C89.8836 526.284 90.0374 527.607 90.3448 528.563L94.9985 519.356C94.5093 518.705 93.8315 518.38 92.9651 518.38C92.0008 518.38 91.2462 518.892 90.7012 519.918C90.1561 520.929 89.8836 522.488 89.8836 524.594ZM92.9651 530.807C93.9433 530.807 94.705 530.302 95.25 529.29C95.795 528.265 96.0675 526.699 96.0675 524.594C96.0675 522.806 95.8928 521.421 95.5435 520.437L90.8898 529.727C91.3929 530.447 92.0847 530.807 92.9651 530.807Z" fill="url(#paint18_linear_122_130)" fill-opacity="0.6"/>
<path d="M94.2228 554.392H97.3043V555.494H89.3176V554.392H92.8812V542.713L89.4853 544.728L88.8984 543.793L93.0909 541.216H94.2228V554.392Z" fill="url(#paint19_linear_122_130)" fill-opacity="0.6"/>
<path d="M92.9651 564.76C94.4604 564.76 95.5924 565.39 96.361 566.651C97.1436 567.898 97.5349 569.713 97.5349 572.096C97.5349 574.479 97.1436 576.301 96.361 577.561C95.5924 578.822 94.4604 579.453 92.9651 579.453C91.4838 579.453 90.3518 578.822 89.5692 577.561C88.7866 576.301 88.3953 574.479 88.3953 572.096C88.3953 569.726 88.7866 567.911 89.5692 566.651C90.3518 565.39 91.4838 564.76 92.9651 564.76ZM89.8836 572.096C89.8836 573.786 90.0374 575.109 90.3448 576.065L94.9985 566.859C94.5093 566.207 93.8315 565.882 92.9651 565.882C92.0008 565.882 91.2462 566.394 90.7012 567.42C90.1561 568.431 89.8836 569.99 89.8836 572.096ZM92.9651 578.31C93.9433 578.31 94.705 577.804 95.25 576.792C95.795 575.767 96.0675 574.202 96.0675 572.096C96.0675 570.308 95.8928 568.923 95.5435 567.939L90.8898 577.229C91.3929 577.949 92.0847 578.31 92.9651 578.31Z" fill="url(#paint20_linear_122_130)" fill-opacity="0.6"/>
<path d="M92.9651 588.511C94.4604 588.511 95.5924 589.141 96.361 590.402C97.1436 591.649 97.5349 593.464 97.5349 595.847C97.5349 598.23 97.1436 600.052 96.361 601.312C95.5924 602.573 94.4604 603.204 92.9651 603.204C91.4838 603.204 90.3518 602.573 89.5692 601.312C88.7866 600.052 88.3953 598.23 88.3953 595.847C88.3953 593.478 88.7866 591.663 89.5692 590.402C90.3518 589.141 91.4838 588.511 92.9651 588.511ZM89.8836 595.847C89.8836 597.537 90.0374 598.86 90.3448 599.816L94.9985 590.61C94.5093 589.958 93.8315 589.633 92.9651 589.633C92.0008 589.633 91.2462 590.145 90.7012 591.171C90.1561 592.182 89.8836 593.741 89.8836 595.847ZM92.9651 602.061C93.9433 602.061 94.705 601.555 95.25 600.543C95.795 599.518 96.0675 597.953 96.0675 595.847C96.0675 594.059 95.8928 592.674 95.5435 591.69L90.8898 600.98C91.3929 601.7 92.0847 602.061 92.9651 602.061Z" fill="url(#paint21_linear_122_130)" fill-opacity="0.6"/>
<path d="M94.2228 625.645H97.3043V626.747H89.3176V625.645H92.8812V613.966L89.4853 615.982L88.8984 615.046L93.0909 612.469H94.2228V625.645Z" fill="url(#paint22_linear_122_130)" fill-opacity="0.6"/>
<path d="M92.9651 636.013C94.4604 636.013 95.5924 636.643 96.361 637.904C97.1436 639.151 97.5349 640.966 97.5349 643.349C97.5349 645.732 97.1436 647.554 96.361 648.815C95.5924 650.075 94.4604 650.706 92.9651 650.706C91.4838 650.706 90.3518 650.075 89.5692 648.815C88.7866 647.554 88.3953 645.732 88.3953 643.349C88.3953 640.98 88.7866 639.165 89.5692 637.904C90.3518 636.643 91.4838 636.013 92.9651 636.013ZM89.8836 643.349C89.8836 645.039 90.0374 646.362 90.3448 647.318L94.9985 638.112C94.5093 637.461 93.8315 637.135 92.9651 637.135C92.0008 637.135 91.2462 637.648 90.7012 638.673C90.1561 639.684 89.8836 641.243 89.8836 643.349ZM92.9651 649.563C93.9433 649.563 94.705 649.057 95.25 648.046C95.795 647.02 96.0675 645.455 96.0675 643.349C96.0675 641.562 95.8928 640.176 95.5435 639.192L90.8898 648.482C91.3929 649.202 92.0847 649.563 92.9651 649.563Z" fill="url(#paint23_linear_122_130)" fill-opacity="0.6"/>
<path d="M94.2228 673.148H97.3043V674.249H89.3176V673.148H92.8812V661.468L89.4853 663.484L88.8984 662.549L93.0909 659.972H94.2228V673.148Z" fill="url(#paint24_linear_122_130)" fill-opacity="0.6"/>
<path d="M94.2228 696.899H97.3043V698H89.3176V696.899H92.8812V685.219L89.4853 687.235L88.8984 686.3L93.0909 683.723H94.2228V696.899Z" fill="url(#paint25_linear_122_130)" fill-opacity="0.6"/>
<path d="M34.5698 422.253C36.0651 422.253 37.1971 422.884 37.9657 424.144C38.7483 425.391 39.1396 427.206 39.1396 429.589C39.1396 431.972 38.7483 433.794 37.9657 435.055C37.1971 436.316 36.0651 436.946 34.5698 436.946C33.0885 436.946 31.9565 436.316 31.1739 435.055C30.3913 433.794 30 431.972 30 429.589C30 427.22 30.3913 425.405 31.1739 424.144C31.9565 422.884 33.0885 422.253 34.5698 422.253ZM31.4883 429.589C31.4883 431.28 31.6421 432.603 31.9495 433.559L36.6032 424.352C36.114 423.701 35.4363 423.375 34.5698 423.375C33.6055 423.375 32.8509 423.888 32.3059 424.913C31.7608 425.925 31.4883 427.483 31.4883 429.589ZM34.5698 435.803C35.5481 435.803 36.3097 435.297 36.8547 434.286C37.3997 433.261 37.6722 431.695 37.6722 429.589C37.6722 427.802 37.4976 426.417 37.1482 425.433L32.4945 434.722C32.9976 435.443 33.6894 435.803 34.5698 435.803Z" fill="url(#paint26_linear_122_130)" fill-opacity="0.6"/>
<path d="M34.5698 446.004C36.0651 446.004 37.1971 446.635 37.9657 447.895C38.7483 449.142 39.1396 450.957 39.1396 453.34C39.1396 455.723 38.7483 457.545 37.9657 458.806C37.1971 460.067 36.0651 460.697 34.5698 460.697C33.0885 460.697 31.9565 460.067 31.1739 458.806C30.3913 457.545 30 455.723 30 453.34C30 450.971 30.3913 449.156 31.1739 447.895C31.9565 446.635 33.0885 446.004 34.5698 446.004ZM31.4883 453.34C31.4883 455.031 31.6421 456.354 31.9495 457.31L36.6032 448.103C36.114 447.452 35.4363 447.126 34.5698 447.126C33.6055 447.126 32.8509 447.639 32.3059 448.664C31.7608 449.676 31.4883 451.234 31.4883 453.34ZM34.5698 459.554C35.5481 459.554 36.3097 459.049 36.8547 458.037C37.3997 457.012 37.6722 455.446 37.6722 453.34C37.6722 451.553 37.4976 450.168 37.1482 449.184L32.4945 458.474C32.9976 459.194 33.6894 459.554 34.5698 459.554Z" fill="url(#paint27_linear_122_130)" fill-opacity="0.6"/>
<path d="M35.8276 483.139H38.909V484.24H30.9223V483.139H34.486V471.459L31.09 473.475L30.5031 472.54L34.6956 469.963H35.8276V483.139Z" fill="url(#paint28_linear_122_130)" fill-opacity="0.6"/>
<path d="M34.5698 493.506C36.0651 493.506 37.1971 494.137 37.9657 495.398C38.7483 496.644 39.1396 498.459 39.1396 500.842C39.1396 503.225 38.7483 505.047 37.9657 506.308C37.1971 507.569 36.0651 508.199 34.5698 508.199C33.0885 508.199 31.9565 507.569 31.1739 506.308C30.3913 505.047 30 503.225 30 500.842C30 498.473 30.3913 496.658 31.1739 495.398C31.9565 494.137 33.0885 493.506 34.5698 493.506ZM31.4883 500.842C31.4883 502.533 31.6421 503.856 31.9495 504.812L36.6032 495.605C36.114 494.954 35.4363 494.629 34.5698 494.629C33.6055 494.629 32.8509 495.141 32.3059 496.166C31.7608 497.178 31.4883 498.737 31.4883 500.842ZM34.5698 507.056C35.5481 507.056 36.3097 506.551 36.8547 505.539C37.3997 504.514 37.6722 502.948 37.6722 500.842C37.6722 499.055 37.4976 497.67 37.1482 496.686L32.4945 505.976C32.9976 506.696 33.6894 507.056 34.5698 507.056Z" fill="url(#paint29_linear_122_130)" fill-opacity="0.6"/>
<path d="M35.8276 530.641H38.909V531.743H30.9223V530.641H34.486V518.962L31.09 520.977L30.5031 520.042L34.6956 517.465H35.8276V530.641Z" fill="url(#paint30_linear_122_130)" fill-opacity="0.6"/>
<path d="M35.8276 554.392H38.909V555.494H30.9223V554.392H34.486V542.713L31.09 544.728L30.5031 543.793L34.6956 541.216H35.8276V554.392Z" fill="url(#paint31_linear_122_130)" fill-opacity="0.6"/>
<path d="M74.7577 388.135H77.8392V389.236H69.8525V388.135H73.4162V376.455L70.0202 378.471L69.4333 377.536L73.6258 374.959H74.7577V388.135Z" fill="url(#paint32_linear_122_130)" fill-opacity="0.6"/>
<path d="M73.5 398.502C74.9953 398.502 76.1273 399.133 76.8959 400.393C77.6785 401.64 78.0698 403.455 78.0698 405.838C78.0698 408.221 77.6785 410.043 76.8959 411.304C76.1273 412.565 74.9953 413.195 73.5 413.195C72.0187 413.195 70.8867 412.565 70.1041 411.304C69.3215 410.043 68.9302 408.221 68.9302 405.838C68.9302 403.469 69.3215 401.654 70.1041 400.393C70.8867 399.133 72.0187 398.502 73.5 398.502ZM70.4185 405.838C70.4185 407.529 70.5723 408.852 70.8797 409.808L75.5334 400.601C75.0442 399.95 74.3664 399.624 73.5 399.624C72.5357 399.624 71.7811 400.137 71.2361 401.162C70.691 402.174 70.4185 403.732 70.4185 405.838ZM73.5 412.052C74.4782 412.052 75.2399 411.546 75.7849 410.535C76.3299 409.51 76.6024 407.944 76.6024 405.838C76.6024 404.051 76.4277 402.665 76.0784 401.682L71.4247 410.971C71.9278 411.692 72.6196 412.052 73.5 412.052Z" fill="url(#paint33_linear_122_130)" fill-opacity="0.6"/>
<path d="M74.7577 435.637H77.8392V436.738H69.8525V435.637H73.4162V423.957L70.0202 425.973L69.4333 425.038L73.6258 422.461H74.7577V435.637Z" fill="url(#paint34_linear_122_130)" fill-opacity="0.6"/>
<path d="M74.7577 459.388H77.8392V460.489H69.8525V459.388H73.4162V447.708L70.0202 449.724L69.4333 448.789L73.6258 446.212H74.7577V459.388Z" fill="url(#paint35_linear_122_130)" fill-opacity="0.6"/>
<path d="M73.5 469.755C74.9953 469.755 76.1273 470.386 76.8959 471.646C77.6785 472.893 78.0698 474.708 78.0698 477.091C78.0698 479.474 77.6785 481.296 76.8959 482.557C76.1273 483.818 74.9953 484.448 73.5 484.448C72.0187 484.448 70.8867 483.818 70.1041 482.557C69.3215 481.296 68.9302 479.474 68.9302 477.091C68.9302 474.722 69.3215 472.907 70.1041 471.646C70.8867 470.386 72.0187 469.755 73.5 469.755ZM70.4185 477.091C70.4185 478.782 70.5723 480.105 70.8797 481.061L75.5334 471.854C75.0442 471.203 74.3664 470.878 73.5 470.878C72.5357 470.878 71.7811 471.39 71.2361 472.415C70.691 473.427 70.4185 474.985 70.4185 477.091ZM73.5 483.305C74.4782 483.305 75.2399 482.8 75.7849 481.788C76.3299 480.763 76.6024 479.197 76.6024 477.091C76.6024 475.304 76.4277 473.919 76.0784 472.935L71.4247 482.225C71.9278 482.945 72.6196 483.305 73.5 483.305Z" fill="url(#paint36_linear_122_130)" fill-opacity="0.6"/>
<path d="M74.7577 506.89H77.8392V507.992H69.8525V506.89H73.4162V495.21L70.0202 497.226L69.4333 496.291L73.6258 493.714H74.7577V506.89Z" fill="url(#paint37_linear_122_130)" fill-opacity="0.6"/>
<path d="M74.7577 530.641H77.8392V531.743H69.8525V530.641H73.4162V518.962L70.0202 520.977L69.4333 520.042L73.6258 517.465H74.7577V530.641Z" fill="url(#paint38_linear_122_130)" fill-opacity="0.6"/>
<path d="M73.5 541.008C74.9953 541.008 76.1273 541.639 76.8959 542.9C77.6785 544.147 78.0698 545.962 78.0698 548.345C78.0698 550.728 77.6785 552.549 76.8959 553.81C76.1273 555.071 74.9953 555.701 73.5 555.701C72.0187 555.701 70.8867 555.071 70.1041 553.81C69.3215 552.549 68.9302 550.728 68.9302 548.345C68.9302 545.975 69.3215 544.16 70.1041 542.9C70.8867 541.639 72.0187 541.008 73.5 541.008ZM70.4185 548.345C70.4185 550.035 70.5723 551.358 70.8797 552.314L75.5334 543.107C75.0442 542.456 74.3664 542.131 73.5 542.131C72.5357 542.131 71.7811 542.643 71.2361 543.669C70.691 544.68 70.4185 546.239 70.4185 548.345ZM73.5 554.558C74.4782 554.558 75.2399 554.053 75.7849 553.041C76.3299 552.016 76.6024 550.451 76.6024 548.345C76.6024 546.557 76.4277 545.172 76.0784 544.188L71.4247 553.478C71.9278 554.198 72.6196 554.558 73.5 554.558Z" fill="url(#paint39_linear_122_130)" fill-opacity="0.6"/>
<path d="M74.7577 578.143H77.8392V579.245H69.8525V578.143H73.4162V566.464L70.0202 568.48L69.4333 567.544L73.6258 564.967H74.7577V578.143Z" fill="url(#paint40_linear_122_130)" fill-opacity="0.6"/>
<path d="M73.5 588.511C74.9953 588.511 76.1273 589.141 76.8959 590.402C77.6785 591.649 78.0698 593.464 78.0698 595.847C78.0698 598.23 77.6785 600.052 76.8959 601.312C76.1273 602.573 74.9953 603.204 73.5 603.204C72.0187 603.204 70.8867 602.573 70.1041 601.312C69.3215 600.052 68.9302 598.23 68.9302 595.847C68.9302 593.478 69.3215 591.663 70.1041 590.402C70.8867 589.141 72.0187 588.511 73.5 588.511ZM70.4185 595.847C70.4185 597.537 70.5723 598.86 70.8797 599.816L75.5334 590.61C75.0442 589.958 74.3664 589.633 73.5 589.633C72.5357 589.633 71.7811 590.145 71.2361 591.171C70.691 592.182 70.4185 593.741 70.4185 595.847ZM73.5 602.061C74.4782 602.061 75.2399 601.555 75.7849 600.543C76.3299 599.518 76.6024 597.953 76.6024 595.847C76.6024 594.059 76.4277 592.674 76.0784 591.69L71.4247 600.98C71.9278 601.7 72.6196 602.061 73.5 602.061Z" fill="url(#paint41_linear_122_130)" fill-opacity="0.6"/>
<path d="M112.43 374.751C113.926 374.751 115.057 375.381 115.826 376.642C116.609 377.889 117 379.704 117 382.087C117 384.47 116.609 386.292 115.826 387.553C115.057 388.814 113.926 389.444 112.43 389.444C110.949 389.444 109.817 388.814 109.034 387.553C108.252 386.292 107.86 384.47 107.86 382.087C107.86 379.718 108.252 377.903 109.034 376.642C109.817 375.381 110.949 374.751 112.43 374.751ZM109.349 382.087C109.349 383.777 109.502 385.101 109.81 386.057L114.464 376.85C113.974 376.199 113.297 375.873 112.43 375.873C111.466 375.873 110.711 376.386 110.166 377.411C109.621 378.423 109.349 379.981 109.349 382.087ZM112.43 388.301C113.408 388.301 114.17 387.795 114.715 386.784C115.26 385.759 115.533 384.193 115.533 382.087C115.533 380.3 115.358 378.914 115.009 377.931L110.355 387.22C110.858 387.941 111.55 388.301 112.43 388.301Z" fill="url(#paint42_linear_122_130)" fill-opacity="0.6"/>
<path d="M113.688 411.886H116.769V412.987H108.783V411.886H112.346V400.206L108.95 402.222L108.363 401.287L112.556 398.71H113.688V411.886Z" fill="url(#paint43_linear_122_130)" fill-opacity="0.6"/>
<path d="M113.688 435.637H116.769V436.738H108.783V435.637H112.346V423.957L108.95 425.973L108.363 425.038L112.556 422.461H113.688V435.637Z" fill="url(#paint44_linear_122_130)" fill-opacity="0.6"/>
<path d="M112.43 446.004C113.926 446.004 115.057 446.635 115.826 447.895C116.609 449.142 117 450.957 117 453.34C117 455.723 116.609 457.545 115.826 458.806C115.057 460.067 113.926 460.697 112.43 460.697C110.949 460.697 109.817 460.067 109.034 458.806C108.252 457.545 107.86 455.723 107.86 453.34C107.86 450.971 108.252 449.156 109.034 447.895C109.817 446.635 110.949 446.004 112.43 446.004ZM109.349 453.34C109.349 455.031 109.502 456.354 109.81 457.31L114.464 448.103C113.974 447.452 113.297 447.126 112.43 447.126C111.466 447.126 110.711 447.639 110.166 448.664C109.621 449.676 109.349 451.234 109.349 453.34ZM112.43 459.554C113.408 459.554 114.17 459.049 114.715 458.037C115.26 457.012 115.533 455.446 115.533 453.34C115.533 451.553 115.358 450.168 115.009 449.184L110.355 458.474C110.858 459.194 111.55 459.554 112.43 459.554Z" fill="url(#paint45_linear_122_130)" fill-opacity="0.6"/>
<path d="M112.43 469.755C113.926 469.755 115.057 470.386 115.826 471.646C116.609 472.893 117 474.708 117 477.091C117 479.474 116.609 481.296 115.826 482.557C115.057 483.818 113.926 484.448 112.43 484.448C110.949 484.448 109.817 483.818 109.034 482.557C108.252 481.296 107.86 479.474 107.86 477.091C107.86 474.722 108.252 472.907 109.034 471.646C109.817 470.386 110.949 469.755 112.43 469.755ZM109.349 477.091C109.349 478.782 109.502 480.105 109.81 481.061L114.464 471.854C113.974 471.203 113.297 470.878 112.43 470.878C111.466 470.878 110.711 471.39 110.166 472.415C109.621 473.427 109.349 474.985 109.349 477.091ZM112.43 483.305C113.408 483.305 114.17 482.8 114.715 481.788C115.26 480.763 115.533 479.197 115.533 477.091C115.533 475.304 115.358 473.919 115.009 472.935L110.355 482.225C110.858 482.945 111.55 483.305 112.43 483.305Z" fill="url(#paint46_linear_122_130)" fill-opacity="0.6"/>
<g opacity="0.6">
<path d="M940.93 51C942.356 51 943.436 51.605 944.17 52.8149C944.916 54.0115 945.29 55.7532 945.29 58.0401C945.29 60.327 944.916 62.0754 944.17 63.2853C943.436 64.4952 942.356 65.1002 940.93 65.1002C939.517 65.1002 938.437 64.4952 937.69 63.2853C936.943 62.0754 936.57 60.327 936.57 58.0401C936.57 55.7665 936.943 54.0248 937.69 52.8149C938.437 51.605 939.517 51 940.93 51ZM937.99 58.0401C937.99 59.6622 938.137 60.932 938.43 61.8494L942.87 53.0143C942.403 52.3894 941.756 52.077 940.93 52.077C940.01 52.077 939.29 52.5689 938.77 53.5528C938.25 54.5234 937.99 56.0192 937.99 58.0401ZM940.93 64.0033C941.863 64.0033 942.59 63.518 943.11 62.5474C943.63 61.5635 943.89 60.0611 943.89 58.0401C943.89 56.325 943.723 54.9954 943.39 54.0514L938.95 62.9662C939.43 63.6576 940.09 64.0033 940.93 64.0033Z" fill="url(#paint47_linear_122_130)"/>
<path d="M942.13 86.6365H945.07V87.6936H937.45V86.6365H940.85V75.4282L937.61 77.3627L937.05 76.4653L941.05 73.9922H942.13V86.6365Z" fill="url(#paint48_linear_122_130)"/>
<path d="M940.93 96.5856C942.356 96.5856 943.436 97.1906 944.17 98.4005C944.916 99.5971 945.29 101.339 945.29 103.626C945.29 105.913 944.916 107.661 944.17 108.871C943.436 110.081 942.356 110.686 940.93 110.686C939.517 110.686 938.437 110.081 937.69 108.871C936.943 107.661 936.57 105.913 936.57 103.626C936.57 101.352 936.943 99.6104 937.69 98.4005C938.437 97.1906 939.517 96.5856 940.93 96.5856ZM937.99 103.626C937.99 105.248 938.137 106.518 938.43 107.435L942.87 98.5999C942.403 97.975 941.756 97.6626 940.93 97.6626C940.01 97.6626 939.29 98.1545 938.77 99.1384C938.25 100.109 937.99 101.605 937.99 103.626ZM940.93 109.589C941.863 109.589 942.59 109.104 943.11 108.133C943.63 107.149 943.89 105.647 943.89 103.626C943.89 101.911 943.723 100.581 943.39 99.637L938.95 108.552C939.43 109.243 940.09 109.589 940.93 109.589Z" fill="url(#paint49_linear_122_130)"/>
<path d="M942.13 132.222H945.07V133.279H937.45V132.222H940.85V121.014L937.61 122.948L937.05 122.051L941.05 119.578H942.13V132.222Z" fill="url(#paint50_linear_122_130)"/>
<path d="M942.13 155.015H945.07V156.072H937.45V155.015H940.85V143.807L937.61 145.741L937.05 144.844L941.05 142.371H942.13V155.015Z" fill="url(#paint51_linear_122_130)"/>
<path d="M940.93 164.964C942.356 164.964 943.436 165.569 944.17 166.779C944.916 167.976 945.29 169.717 945.29 172.004C945.29 174.291 944.916 176.039 944.17 177.249C943.436 178.459 942.356 179.064 940.93 179.064C939.517 179.064 938.437 178.459 937.69 177.249C936.943 176.039 936.57 174.291 936.57 172.004C936.57 169.731 936.943 167.989 937.69 166.779C938.437 165.569 939.517 164.964 940.93 164.964ZM937.99 172.004C937.99 173.626 938.137 174.896 938.43 175.813L942.87 166.978C942.403 166.353 941.756 166.041 940.93 166.041C940.01 166.041 939.29 166.533 938.77 167.517C938.25 168.487 937.99 169.983 937.99 172.004ZM940.93 177.967C941.863 177.967 942.59 177.482 943.11 176.511C943.63 175.528 943.89 174.025 943.89 172.004C943.89 170.289 943.723 168.959 943.39 168.015L938.95 176.93C939.43 177.622 940.09 177.967 940.93 177.967Z" fill="url(#paint52_linear_122_130)"/>
<path d="M942.13 200.601H945.07V201.658H937.45V200.601H940.85V189.392L937.61 191.327L937.05 190.429L941.05 187.956H942.13V200.601Z" fill="url(#paint53_linear_122_130)"/>
<path d="M940.93 210.55C942.356 210.55 943.436 211.155 944.17 212.365C944.916 213.561 945.29 215.303 945.29 217.59C945.29 219.877 944.916 221.625 944.17 222.835C943.436 224.045 942.356 224.65 940.93 224.65C939.517 224.65 938.437 224.045 937.69 222.835C936.943 221.625 936.57 219.877 936.57 217.59C936.57 215.316 936.943 213.574 937.69 212.365C938.437 211.155 939.517 210.55 940.93 210.55ZM937.99 217.59C937.99 219.212 938.137 220.482 938.43 221.399L942.87 212.564C942.403 211.939 941.756 211.627 940.93 211.627C940.01 211.627 939.29 212.119 938.77 213.102C938.25 214.073 937.99 215.569 937.99 217.59ZM940.93 223.553C941.863 223.553 942.59 223.068 943.11 222.097C943.63 221.113 943.89 219.611 943.89 217.59C943.89 215.875 943.723 214.545 943.39 213.601L938.95 222.516C939.43 223.207 940.09 223.553 940.93 223.553Z" fill="url(#paint54_linear_122_130)"/>
<path d="M940.93 233.342C942.356 233.342 943.436 233.947 944.17 235.157C944.916 236.354 945.29 238.096 945.29 240.383C945.29 242.669 944.916 244.418 944.17 245.628C943.436 246.838 942.356 247.443 940.93 247.443C939.517 247.443 938.437 246.838 937.69 245.628C936.943 244.418 936.57 242.669 936.57 240.383C936.57 238.109 936.943 236.367 937.69 235.157C938.437 233.947 939.517 233.342 940.93 233.342ZM937.99 240.383C937.99 242.005 938.137 243.274 938.43 244.192L942.87 235.357C942.403 234.732 941.756 234.419 940.93 234.419C940.01 234.419 939.29 234.911 938.77 235.895C938.25 236.866 937.99 238.362 937.99 240.383ZM940.93 246.346C941.863 246.346 942.59 245.86 943.11 244.89C943.63 243.906 943.89 242.404 943.89 240.383C943.89 238.667 943.723 237.338 943.39 236.394L938.95 245.309C939.43 246 940.09 246.346 940.93 246.346Z" fill="url(#paint55_linear_122_130)"/>
<path d="M942.13 268.979H945.07V270.036H937.45V268.979H940.85V257.771L937.61 259.705L937.05 258.808L941.05 256.335H942.13V268.979Z" fill="url(#paint56_linear_122_130)"/>
<path d="M940.93 278.928C942.356 278.928 943.436 279.533 944.17 280.743C944.916 281.94 945.29 283.681 945.29 285.968C945.29 288.255 944.916 290.003 944.17 291.213C943.436 292.423 942.356 293.028 940.93 293.028C939.517 293.028 938.437 292.423 937.69 291.213C936.943 290.003 936.57 288.255 936.57 285.968C936.57 283.695 936.943 281.953 937.69 280.743C938.437 279.533 939.517 278.928 940.93 278.928ZM937.99 285.968C937.99 287.59 938.137 288.86 938.43 289.777L942.87 280.942C942.403 280.317 941.756 280.005 940.93 280.005C940.01 280.005 939.29 280.497 938.77 281.481C938.25 282.451 937.99 283.947 937.99 285.968ZM940.93 291.931C941.863 291.931 942.59 291.446 943.11 290.475C943.63 289.492 943.89 287.989 943.89 285.968C943.89 284.253 943.723 282.923 943.39 281.979L938.95 290.894C939.43 291.586 940.09 291.931 940.93 291.931Z" fill="url(#paint57_linear_122_130)"/>
<path d="M942.13 314.565H945.07V315.622H937.45V314.565H940.85V303.356L937.61 305.291L937.05 304.393L941.05 301.92H942.13V314.565Z" fill="url(#paint58_linear_122_130)"/>
<path d="M942.13 337.357H945.07V338.414H937.45V337.357H940.85V326.149L937.61 328.084L937.05 327.186L941.05 324.713H942.13V337.357Z" fill="url(#paint59_linear_122_130)"/>
<path d="M978.07 96.5856C979.497 96.5856 980.577 97.1906 981.31 98.4005C982.057 99.5971 982.43 101.339 982.43 103.626C982.43 105.913 982.057 107.661 981.31 108.871C980.577 110.081 979.497 110.686 978.07 110.686C976.657 110.686 975.577 110.081 974.83 108.871C974.084 107.661 973.71 105.913 973.71 103.626C973.71 101.352 974.084 99.6104 974.83 98.4005C975.577 97.1906 976.657 96.5856 978.07 96.5856ZM975.13 103.626C975.13 105.248 975.277 106.518 975.57 107.435L980.01 98.5999C979.543 97.975 978.897 97.6626 978.07 97.6626C977.15 97.6626 976.43 98.1545 975.91 99.1384C975.39 100.109 975.13 101.605 975.13 103.626ZM978.07 109.589C979.003 109.589 979.73 109.104 980.25 108.133C980.77 107.149 981.03 105.647 981.03 103.626C981.03 101.911 980.863 100.581 980.53 99.637L976.09 108.552C976.57 109.243 977.23 109.589 978.07 109.589Z" fill="url(#paint60_linear_122_130)"/>
<path d="M979.27 132.222H982.21V133.279H974.59V132.222H977.99V121.014L974.75 122.948L974.19 122.051L978.19 119.578H979.27V132.222Z" fill="url(#paint61_linear_122_130)"/>
<path d="M978.07 142.171C979.497 142.171 980.577 142.776 981.31 143.986C982.057 145.183 982.43 146.924 982.43 149.211C982.43 151.498 982.057 153.247 981.31 154.457C980.577 155.666 979.497 156.271 978.07 156.271C976.657 156.271 975.577 155.666 974.83 154.457C974.084 153.247 973.71 151.498 973.71 149.211C973.71 146.938 974.084 145.196 974.83 143.986C975.577 142.776 976.657 142.171 978.07 142.171ZM975.13 149.211C975.13 150.833 975.277 152.103 975.57 153.021L980.01 144.186C979.543 143.561 978.897 143.248 978.07 143.248C977.15 143.248 976.43 143.74 975.91 144.724C975.39 145.695 975.13 147.19 975.13 149.211ZM978.07 155.174C979.003 155.174 979.73 154.689 980.25 153.719C980.77 152.735 981.03 151.232 981.03 149.211C981.03 147.496 980.863 146.167 980.53 145.223L976.09 154.137C976.57 154.829 977.23 155.174 978.07 155.174Z" fill="url(#paint62_linear_122_130)"/>
<path d="M978.07 164.964C979.497 164.964 980.577 165.569 981.31 166.779C982.057 167.976 982.43 169.717 982.43 172.004C982.43 174.291 982.057 176.039 981.31 177.249C980.577 178.459 979.497 179.064 978.07 179.064C976.657 179.064 975.577 178.459 974.83 177.249C974.084 176.039 973.71 174.291 973.71 172.004C973.71 169.731 974.084 167.989 974.83 166.779C975.577 165.569 976.657 164.964 978.07 164.964ZM975.13 172.004C975.13 173.626 975.277 174.896 975.57 175.813L980.01 166.978C979.543 166.353 978.897 166.041 978.07 166.041C977.15 166.041 976.43 166.533 975.91 167.517C975.39 168.487 975.13 169.983 975.13 172.004ZM978.07 177.967C979.003 177.967 979.73 177.482 980.25 176.511C980.77 175.528 981.03 174.025 981.03 172.004C981.03 170.289 980.863 168.959 980.53 168.015L976.09 176.93C976.57 177.622 977.23 177.967 978.07 177.967Z" fill="url(#paint63_linear_122_130)"/>
<path d="M979.27 200.601H982.21V201.658H974.59V200.601H977.99V189.392L974.75 191.327L974.19 190.429L978.19 187.956H979.27V200.601Z" fill="url(#paint64_linear_122_130)"/>
<path d="M978.07 210.55C979.497 210.55 980.577 211.155 981.31 212.365C982.057 213.561 982.43 215.303 982.43 217.59C982.43 219.877 982.057 221.625 981.31 222.835C980.577 224.045 979.497 224.65 978.07 224.65C976.657 224.65 975.577 224.045 974.83 222.835C974.084 221.625 973.71 219.877 973.71 217.59C973.71 215.316 974.084 213.574 974.83 212.365C975.577 211.155 976.657 210.55 978.07 210.55ZM975.13 217.59C975.13 219.212 975.277 220.482 975.57 221.399L980.01 212.564C979.543 211.939 978.897 211.627 978.07 211.627C977.15 211.627 976.43 212.119 975.91 213.102C975.39 214.073 975.13 215.569 975.13 217.59ZM978.07 223.553C979.003 223.553 979.73 223.068 980.25 222.097C980.77 221.113 981.03 219.611 981.03 217.59C981.03 215.875 980.863 214.545 980.53 213.601L976.09 222.516C976.57 223.207 977.23 223.553 978.07 223.553Z" fill="url(#paint65_linear_122_130)"/>
<path d="M979.27 246.186H982.21V247.243H974.59V246.186H977.99V234.978L974.75 236.912L974.19 236.015L978.19 233.542H979.27V246.186Z" fill="url(#paint66_linear_122_130)"/>
<path d="M978.07 256.135C979.497 256.135 980.577 256.74 981.31 257.95C982.057 259.147 982.43 260.888 982.43 263.175C982.43 265.462 982.057 267.211 981.31 268.421C980.577 269.63 979.497 270.235 978.07 270.235C976.657 270.235 975.577 269.63 974.83 268.421C974.084 267.211 973.71 265.462 973.71 263.175C973.71 260.902 974.084 259.16 974.83 257.95C975.577 256.74 976.657 256.135 978.07 256.135ZM975.13 263.175C975.13 264.797 975.277 266.067 975.57 266.985L980.01 258.15C979.543 257.525 978.897 257.212 978.07 257.212C977.15 257.212 976.43 257.704 975.91 258.688C975.39 259.659 975.13 261.154 975.13 263.175ZM978.07 269.139C979.003 269.139 979.73 268.653 980.25 267.683C980.77 266.699 981.03 265.196 981.03 263.175C981.03 261.46 980.863 260.131 980.53 259.187L976.09 268.101C976.57 268.793 977.23 269.139 978.07 269.139Z" fill="url(#paint67_linear_122_130)"/>
<path d="M978.07 278.928C979.497 278.928 980.577 279.533 981.31 280.743C982.057 281.94 982.43 283.681 982.43 285.968C982.43 288.255 982.057 290.003 981.31 291.213C980.577 292.423 979.497 293.028 978.07 293.028C976.657 293.028 975.577 292.423 974.83 291.213C974.084 290.003 973.71 288.255 973.71 285.968C973.71 283.695 974.084 281.953 974.83 280.743C975.577 279.533 976.657 278.928 978.07 278.928ZM975.13 285.968C975.13 287.59 975.277 288.86 975.57 289.777L980.01 280.942C979.543 280.317 978.897 280.005 978.07 280.005C977.15 280.005 976.43 280.497 975.91 281.481C975.39 282.451 975.13 283.947 975.13 285.968ZM978.07 291.931C979.003 291.931 979.73 291.446 980.25 290.475C980.77 289.492 981.03 287.989 981.03 285.968C981.03 284.253 980.863 282.923 980.53 281.979L976.09 290.894C976.57 291.586 977.23 291.931 978.07 291.931Z" fill="url(#paint68_linear_122_130)"/>
<path d="M979.27 314.565H982.21V315.622H974.59V314.565H977.99V303.356L974.75 305.291L974.19 304.393L978.19 301.92H979.27V314.565Z" fill="url(#paint69_linear_122_130)"/>
<path d="M978.07 324.514C979.497 324.514 980.577 325.119 981.31 326.329C982.057 327.525 982.43 329.267 982.43 331.554C982.43 333.841 982.057 335.589 981.31 336.799C980.577 338.009 979.497 338.614 978.07 338.614C976.657 338.614 975.577 338.009 974.83 336.799C974.084 335.589 973.71 333.841 973.71 331.554C973.71 329.28 974.084 327.538 974.83 326.329C975.577 325.119 976.657 324.514 978.07 324.514ZM975.13 331.554C975.13 333.176 975.277 334.446 975.57 335.363L980.01 326.528C979.543 325.903 978.897 325.591 978.07 325.591C977.15 325.591 976.43 326.083 975.91 327.066C975.39 328.037 975.13 329.533 975.13 331.554ZM978.07 337.517C979.003 337.517 979.73 337.032 980.25 336.061C980.77 335.077 981.03 333.575 981.03 331.554C981.03 329.839 980.863 328.509 980.53 327.565L976.09 336.48C976.57 337.171 977.23 337.517 978.07 337.517Z" fill="url(#paint70_linear_122_130)"/>
<path d="M979.27 360.15H982.21V361.207H974.59V360.15H977.99V348.942L974.75 350.876L974.19 349.979L978.19 347.506H979.27V360.15Z" fill="url(#paint71_linear_122_130)"/>
<path d="M979.27 382.943H982.21V384H974.59V382.943H977.99V371.735L974.75 373.669L974.19 372.772L978.19 370.299H979.27V382.943Z" fill="url(#paint72_linear_122_130)"/>
<path d="M922.36 119.378C923.786 119.378 924.866 119.983 925.599 121.193C926.346 122.39 926.719 124.132 926.719 126.419C926.719 128.705 926.346 130.454 925.599 131.664C924.866 132.874 923.786 133.479 922.36 133.479C920.946 133.479 919.867 132.874 919.12 131.664C918.373 130.454 918 128.705 918 126.419C918 124.145 918.373 122.403 919.12 121.193C919.867 119.983 920.946 119.378 922.36 119.378ZM919.42 126.419C919.42 128.041 919.567 129.31 919.86 130.228L924.3 121.393C923.833 120.768 923.186 120.455 922.36 120.455C921.44 120.455 920.72 120.947 920.2 121.931C919.68 122.902 919.42 124.398 919.42 126.419ZM922.36 132.382C923.293 132.382 924.02 131.896 924.54 130.926C925.06 129.942 925.319 128.44 925.319 126.419C925.319 124.703 925.153 123.374 924.82 122.43L920.38 131.345C920.86 132.036 921.52 132.382 922.36 132.382Z" fill="url(#paint73_linear_122_130)"/>
<path d="M922.36 142.171C923.786 142.171 924.866 142.776 925.599 143.986C926.346 145.183 926.719 146.924 926.719 149.211C926.719 151.498 926.346 153.247 925.599 154.457C924.866 155.666 923.786 156.271 922.36 156.271C920.946 156.271 919.867 155.666 919.12 154.457C918.373 153.247 918 151.498 918 149.211C918 146.938 918.373 145.196 919.12 143.986C919.867 142.776 920.946 142.171 922.36 142.171ZM919.42 149.211C919.42 150.833 919.567 152.103 919.86 153.021L924.3 144.186C923.833 143.561 923.186 143.248 922.36 143.248C921.44 143.248 920.72 143.74 920.2 144.724C919.68 145.695 919.42 147.19 919.42 149.211ZM922.36 155.174C923.293 155.174 924.02 154.689 924.54 153.719C925.06 152.735 925.319 151.232 925.319 149.211C925.319 147.496 925.153 146.167 924.82 145.223L920.38 154.137C920.86 154.829 921.52 155.174 922.36 155.174Z" fill="url(#paint74_linear_122_130)"/>
<path d="M923.56 177.808H926.499V178.865H918.88V177.808H922.28V166.599L919.04 168.534L918.48 167.636L922.48 165.163H923.56V177.808Z" fill="url(#paint75_linear_122_130)"/>
<path d="M922.36 187.757C923.786 187.757 924.866 188.362 925.599 189.572C926.346 190.768 926.719 192.51 926.719 194.797C926.719 197.084 926.346 198.832 925.599 200.042C924.866 201.252 923.786 201.857 922.36 201.857C920.946 201.857 919.867 201.252 919.12 200.042C918.373 198.832 918 197.084 918 194.797C918 192.523 918.373 190.782 919.12 189.572C919.867 188.362 920.946 187.757 922.36 187.757ZM919.42 194.797C919.42 196.419 919.567 197.689 919.86 198.606L924.3 189.771C923.833 189.146 923.186 188.834 922.36 188.834C921.44 188.834 920.72 189.326 920.2 190.31C919.68 191.28 919.42 192.776 919.42 194.797ZM922.36 200.76C923.293 200.76 924.02 200.275 924.54 199.304C925.06 198.32 925.319 196.818 925.319 194.797C925.319 193.082 925.153 191.752 924.82 190.808L920.38 199.723C920.86 200.414 921.52 200.76 922.36 200.76Z" fill="url(#paint76_linear_122_130)"/>
<path d="M923.56 223.393H926.499V224.45H918.88V223.393H922.28V212.185L919.04 214.12L918.48 213.222L922.48 210.749H923.56V223.393Z" fill="url(#paint77_linear_122_130)"/>
<path d="M923.56 246.186H926.499V247.243H918.88V246.186H922.28V234.978L919.04 236.912L918.48 236.015L922.48 233.542H923.56V246.186Z" fill="url(#paint78_linear_122_130)"/>
<path d="M960.7 86.6365H963.64V87.6936H956.02V86.6365H959.42V75.4282L956.18 77.3627L955.62 76.4653L959.62 73.9922H960.7V86.6365Z" fill="url(#paint79_linear_122_130)"/>
<path d="M959.5 96.5856C960.927 96.5856 962.006 97.1906 962.74 98.4005C963.486 99.5971 963.86 101.339 963.86 103.626C963.86 105.913 963.486 107.661 962.74 108.871C962.006 110.081 960.927 110.686 959.5 110.686C958.087 110.686 957.007 110.081 956.26 108.871C955.514 107.661 955.14 105.913 955.14 103.626C955.14 101.352 955.514 99.6104 956.26 98.4005C957.007 97.1906 958.087 96.5856 959.5 96.5856ZM956.56 103.626C956.56 105.248 956.707 106.518 957 107.435L961.44 98.5999C960.973 97.975 960.327 97.6626 959.5 97.6626C958.58 97.6626 957.86 98.1545 957.34 99.1384C956.82 100.109 956.56 101.605 956.56 103.626ZM959.5 109.589C960.433 109.589 961.16 109.104 961.68 108.133C962.2 107.149 962.46 105.647 962.46 103.626C962.46 101.911 962.293 100.581 961.96 99.637L957.52 108.552C958 109.243 958.66 109.589 959.5 109.589Z" fill="url(#paint80_linear_122_130)"/>
<path d="M960.7 132.222H963.64V133.279H956.02V132.222H959.42V121.014L956.18 122.948L955.62 122.051L959.62 119.578H960.7V132.222Z" fill="url(#paint81_linear_122_130)"/>
<path d="M960.7 155.015H963.64V156.072H956.02V155.015H959.42V143.807L956.18 145.741L955.62 144.844L959.62 142.371H960.7V155.015Z" fill="url(#paint82_linear_122_130)"/>
<path d="M959.5 164.964C960.927 164.964 962.006 165.569 962.74 166.779C963.486 167.976 963.86 169.717 963.86 172.004C963.86 174.291 963.486 176.039 962.74 177.249C962.006 178.459 960.927 179.064 959.5 179.064C958.087 179.064 957.007 178.459 956.26 177.249C955.514 176.039 955.14 174.291 955.14 172.004C955.14 169.731 955.514 167.989 956.26 166.779C957.007 165.569 958.087 164.964 959.5 164.964ZM956.56 172.004C956.56 173.626 956.707 174.896 957 175.813L961.44 166.978C960.973 166.353 960.327 166.041 959.5 166.041C958.58 166.041 957.86 166.533 957.34 167.517C956.82 168.487 956.56 169.983 956.56 172.004ZM959.5 177.967C960.433 177.967 961.16 177.482 961.68 176.511C962.2 175.528 962.46 174.025 962.46 172.004C962.46 170.289 962.293 168.959 961.96 168.015L957.52 176.93C958 177.622 958.66 177.967 959.5 177.967Z" fill="url(#paint83_linear_122_130)"/>
<path d="M960.7 200.601H963.64V201.658H956.02V200.601H959.42V189.392L956.18 191.327L955.62 190.429L959.62 187.956H960.7V200.601Z" fill="url(#paint84_linear_122_130)"/>
<path d="M960.7 223.393H963.64V224.45H956.02V223.393H959.42V212.185L956.18 214.12L955.62 213.222L959.62 210.749H960.7V223.393Z" fill="url(#paint85_linear_122_130)"/>
<path d="M959.5 233.342C960.927 233.342 962.006 233.947 962.74 235.157C963.486 236.354 963.86 238.096 963.86 240.383C963.86 242.669 963.486 244.418 962.74 245.628C962.006 246.838 960.927 247.443 959.5 247.443C958.087 247.443 957.007 246.838 956.26 245.628C955.514 244.418 955.14 242.669 955.14 240.383C955.14 238.109 955.514 236.367 956.26 235.157C957.007 233.947 958.087 233.342 959.5 233.342ZM956.56 240.383C956.56 242.005 956.707 243.274 957 244.192L961.44 235.357C960.973 234.732 960.327 234.419 959.5 234.419C958.58 234.419 957.86 234.911 957.34 235.895C956.82 236.866 956.56 238.362 956.56 240.383ZM959.5 246.346C960.433 246.346 961.16 245.86 961.68 244.89C962.2 243.906 962.46 242.404 962.46 240.383C962.46 238.667 962.293 237.338 961.96 236.394L957.52 245.309C958 246 958.66 246.346 959.5 246.346Z" fill="url(#paint86_linear_122_130)"/>
<path d="M960.7 268.979H963.64V270.036H956.02V268.979H959.42V257.771L956.18 259.705L955.62 258.808L959.62 256.335H960.7V268.979Z" fill="url(#paint87_linear_122_130)"/>
<path d="M959.5 278.928C960.927 278.928 962.006 279.533 962.74 280.743C963.486 281.94 963.86 283.681 963.86 285.968C963.86 288.255 963.486 290.003 962.74 291.213C962.006 292.423 960.927 293.028 959.5 293.028C958.087 293.028 957.007 292.423 956.26 291.213C955.514 290.003 955.14 288.255 955.14 285.968C955.14 283.695 955.514 281.953 956.26 280.743C957.007 279.533 958.087 278.928 959.5 278.928ZM956.56 285.968C956.56 287.59 956.707 288.86 957 289.777L961.44 280.942C960.973 280.317 960.327 280.005 959.5 280.005C958.58 280.005 957.86 280.497 957.34 281.481C956.82 282.451 956.56 283.947 956.56 285.968ZM959.5 291.931C960.433 291.931 961.16 291.446 961.68 290.475C962.2 289.492 962.46 287.989 962.46 285.968C962.46 284.253 962.293 282.923 961.96 281.979L957.52 290.894C958 291.586 958.66 291.931 959.5 291.931Z" fill="url(#paint88_linear_122_130)"/>
<path d="M996.64 73.7928C998.067 73.7928 999.147 74.3978 999.88 75.6077C1000.63 76.8043 1001 78.5461 1001 80.8329C1001 83.1198 1000.63 84.8682 999.88 86.0781C999.147 87.288 998.067 87.893 996.64 87.893C995.227 87.893 994.147 87.288 993.401 86.0781C992.654 84.8682 992.281 83.1198 992.281 80.8329C992.281 78.5593 992.654 76.8176 993.401 75.6077C994.147 74.3978 995.227 73.7928 996.64 73.7928ZM993.7 80.8329C993.7 82.455 993.847 83.7248 994.14 84.6422L998.58 75.8071C998.114 75.1822 997.467 74.8698 996.64 74.8698C995.72 74.8698 995 75.3617 994.48 76.3456C993.96 77.3162 993.7 78.812 993.7 80.8329ZM996.64 86.7961C997.574 86.7961 998.3 86.3108 998.82 85.3402C999.34 84.3563 999.6 82.8539 999.6 80.8329C999.6 79.1178 999.433 77.7882 999.1 76.8442L994.66 85.759C995.14 86.4504 995.8 86.7961 996.64 86.7961Z" fill="url(#paint89_linear_122_130)"/>
<path d="M997.84 109.429H1000.78V110.486H993.161V109.429H996.56V98.221L993.321 100.156L992.761 99.2581L996.76 96.785H997.84V109.429Z" fill="url(#paint90_linear_122_130)"/>
<path d="M997.84 132.222H1000.78V133.279H993.161V132.222H996.56V121.014L993.321 122.948L992.761 122.051L996.76 119.578H997.84V132.222Z" fill="url(#paint91_linear_122_130)"/>
<path d="M996.64 142.171C998.067 142.171 999.147 142.776 999.88 143.986C1000.63 145.183 1001 146.924 1001 149.211C1001 151.498 1000.63 153.247 999.88 154.457C999.147 155.666 998.067 156.271 996.64 156.271C995.227 156.271 994.147 155.666 993.401 154.457C992.654 153.247 992.281 151.498 992.281 149.211C992.281 146.938 992.654 145.196 993.401 143.986C994.147 142.776 995.227 142.171 996.64 142.171ZM993.7 149.211C993.7 150.833 993.847 152.103 994.14 153.021L998.58 144.186C998.114 143.561 997.467 143.248 996.64 143.248C995.72 143.248 995 143.74 994.48 144.724C993.96 145.695 993.7 147.19 993.7 149.211ZM996.64 155.174C997.574 155.174 998.3 154.689 998.82 153.719C999.34 152.735 999.6 151.232 999.6 149.211C999.6 147.496 999.433 146.167 999.1 145.223L994.66 154.137C995.14 154.829 995.8 155.174 996.64 155.174Z" fill="url(#paint92_linear_122_130)"/>
<path d="M996.64 164.964C998.067 164.964 999.147 165.569 999.88 166.779C1000.63 167.976 1001 169.717 1001 172.004C1001 174.291 1000.63 176.039 999.88 177.249C999.147 178.459 998.067 179.064 996.64 179.064C995.227 179.064 994.147 178.459 993.401 177.249C992.654 176.039 992.281 174.291 992.281 172.004C992.281 169.731 992.654 167.989 993.401 166.779C994.147 165.569 995.227 164.964 996.64 164.964ZM993.7 172.004C993.7 173.626 993.847 174.896 994.14 175.813L998.58 166.978C998.114 166.353 997.467 166.041 996.64 166.041C995.72 166.041 995 166.533 994.48 167.517C993.96 168.487 993.7 169.983 993.7 172.004ZM996.64 177.967C997.574 177.967 998.3 177.482 998.82 176.511C999.34 175.528 999.6 174.025 999.6 172.004C999.6 170.289 999.433 168.959 999.1 168.015L994.66 176.93C995.14 177.622 995.8 177.967 996.64 177.967Z" fill="url(#paint93_linear_122_130)"/>
</g>
</g>
<defs>
<filter id="filter0_f_122_130" x="-537.19" y="-635.19" width="2141.38" height="1500.38" filterUnits="userSpaceOnUse" color-interpolation-filters="sRGB">
<feFlood flood-opacity="0" result="BackgroundImageFix"/>
<feBlend mode="normal" in="SourceGraphic" in2="BackgroundImageFix" result="shape"/>
<feGaussianBlur stdDeviation="200.095" result="effect1_foregroundBlur_122_130"/>
</filter>
<linearGradient id="paint0_linear_122_130" x1="73.5" y1="351" x2="73.5" y2="662.381" gradientUnits="userSpaceOnUse">
<stop stop-color="#F7DD43"/>
<stop offset="1" stop-color="#F7DD43" stop-opacity="0"/>
</linearGradient>
<linearGradient id="paint1_linear_122_130" x1="73.5" y1="351" x2="73.5" y2="662.381" gradientUnits="userSpaceOnUse">
<stop stop-color="#F7DD43"/>
<stop offset="1" stop-color="#F7DD43" stop-opacity="0"/>
</linearGradient>
<linearGradient id="paint2_linear_122_130" x1="73.5" y1="351" x2="73.5" y2="662.381" gradientUnits="userSpaceOnUse">
<stop stop-color="#F7DD43"/>
<stop offset="1" stop-color="#F7DD43" stop-opacity="0"/>
</linearGradient>
<linearGradient id="paint3_linear_122_130" x1="73.5" y1="351" x2="73.5" y2="662.381" gradientUnits="userSpaceOnUse">
<stop stop-color="#F7DD43"/>
<stop offset="1" stop-color="#F7DD43" stop-opacity="0"/>
</linearGradient>
<linearGradient id="paint4_linear_122_130" x1="73.5" y1="351" x2="73.5" y2="662.381" gradientUnits="userSpaceOnUse">
<stop stop-color="#F7DD43"/>
<stop offset="1" stop-color="#F7DD43" stop-opacity="0"/>
</linearGradient>
<linearGradient id="paint5_linear_122_130" x1="73.5" y1="351" x2="73.5" y2="662.381" gradientUnits="userSpaceOnUse">
<stop stop-color="#F7DD43"/>
<stop offset="1" stop-color="#F7DD43" stop-opacity="0"/>
</linearGradient>
<linearGradient id="paint6_linear_122_130" x1="73.5" y1="351" x2="73.5" y2="662.381" gradientUnits="userSpaceOnUse">
<stop stop-color="#F7DD43"/>
<stop offset="1" stop-color="#F7DD43" stop-opacity="0"/>
</linearGradient>
<linearGradient id="paint7_linear_122_130" x1="73.5" y1="351" x2="73.5" y2="662.381" gradientUnits="userSpaceOnUse">
<stop stop-color="#F7DD43"/>
<stop offset="1" stop-color="#F7DD43" stop-opacity="0"/>
</linearGradient>
<linearGradient id="paint8_linear_122_130" x1="73.5" y1="351" x2="73.5" y2="662.381" gradientUnits="userSpaceOnUse">
<stop stop-color="#F7DD43"/>
<stop offset="1" stop-color="#F7DD43" stop-opacity="0"/>
</linearGradient>
<linearGradient id="paint9_linear_122_130" x1="73.5" y1="351" x2="73.5" y2="662.381" gradientUnits="userSpaceOnUse">
<stop stop-color="#F7DD43"/>
<stop offset="1" stop-color="#F7DD43" stop-opacity="0"/>
</linearGradient>
<linearGradient id="paint10_linear_122_130" x1="73.5" y1="351" x2="73.5" y2="662.381" gradientUnits="userSpaceOnUse">
<stop stop-color="#F7DD43"/>
<stop offset="1" stop-color="#F7DD43" stop-opacity="0"/>
</linearGradient>
<linearGradient id="paint11_linear_122_130" x1="73.5" y1="351" x2="73.5" y2="662.381" gradientUnits="userSpaceOnUse">
<stop stop-color="#F7DD43"/>
<stop offset="1" stop-color="#F7DD43" stop-opacity="0"/>
</linearGradient>
<linearGradient id="paint12_linear_122_130" x1="73.5" y1="351" x2="73.5" y2="662.381" gradientUnits="userSpaceOnUse">
<stop stop-color="#F7DD43"/>
<stop offset="1" stop-color="#F7DD43" stop-opacity="0"/>
</linearGradient>
<linearGradient id="paint13_linear_122_130" x1="73.5" y1="351" x2="73.5" y2="662.381" gradientUnits="userSpaceOnUse">
<stop stop-color="#F7DD43"/>
<stop offset="1" stop-color="#F7DD43" stop-opacity="0"/>
</linearGradient>
<linearGradient id="paint14_linear_122_130" x1="73.5" y1="351" x2="73.5" y2="662.381" gradientUnits="userSpaceOnUse">
<stop stop-color="#F7DD43"/>
<stop offset="1" stop-color="#F7DD43" stop-opacity="0"/>
</linearGradient>
<linearGradient id="paint15_linear_122_130" x1="73.5" y1="351" x2="73.5" y2="662.381" gradientUnits="userSpaceOnUse">
<stop stop-color="#F7DD43"/>
<stop offset="1" stop-color="#F7DD43" stop-opacity="0"/>
</linearGradient>
<linearGradient id="paint16_linear_122_130" x1="73.5" y1="351" x2="73.5" y2="662.381" gradientUnits="userSpaceOnUse">
<stop stop-color="#F7DD43"/>
<stop offset="1" stop-color="#F7DD43" stop-opacity="0"/>
</linearGradient>
<linearGradient id="paint17_linear_122_130" x1="73.5" y1="351" x2="73.5" y2="662.381" gradientUnits="userSpaceOnUse">
<stop stop-color="#F7DD43"/>
<stop offset="1" stop-color="#F7DD43" stop-opacity="0"/>
</linearGradient>
<linearGradient id="paint18_linear_122_130" x1="73.5" y1="351" x2="73.5" y2="662.381" gradientUnits="userSpaceOnUse">
<stop stop-color="#F7DD43"/>
<stop offset="1" stop-color="#F7DD43" stop-opacity="0"/>
</linearGradient>
<linearGradient id="paint19_linear_122_130" x1="73.5" y1="351" x2="73.5" y2="662.381" gradientUnits="userSpaceOnUse">
<stop stop-color="#F7DD43"/>
<stop offset="1" stop-color="#F7DD43" stop-opacity="0"/>
</linearGradient>
<linearGradient id="paint20_linear_122_130" x1="73.5" y1="351" x2="73.5" y2="662.381" gradientUnits="userSpaceOnUse">
<stop stop-color="#F7DD43"/>
<stop offset="1" stop-color="#F7DD43" stop-opacity="0"/>
</linearGradient>
<linearGradient id="paint21_linear_122_130" x1="73.5" y1="351" x2="73.5" y2="662.381" gradientUnits="userSpaceOnUse">
<stop stop-color="#F7DD43"/>
<stop offset="1" stop-color="#F7DD43" stop-opacity="0"/>
</linearGradient>
<linearGradient id="paint22_linear_122_130" x1="73.5" y1="351" x2="73.5" y2="662.381" gradientUnits="userSpaceOnUse">
<stop stop-color="#F7DD43"/>
<stop offset="1" stop-color="#F7DD43" stop-opacity="0"/>
</linearGradient>
<linearGradient id="paint23_linear_122_130" x1="73.5" y1="351" x2="73.5" y2="662.381" gradientUnits="userSpaceOnUse">
<stop stop-color="#F7DD43"/>
<stop offset="1" stop-color="#F7DD43" stop-opacity="0"/>
</linearGradient>
<linearGradient id="paint24_linear_122_130" x1="73.5" y1="351" x2="73.5" y2="662.381" gradientUnits="userSpaceOnUse">
<stop stop-color="#F7DD43"/>
<stop offset="1" stop-color="#F7DD43" stop-opacity="0"/>
</linearGradient>
<linearGradient id="paint25_linear_122_130" x1="73.5" y1="351" x2="73.5" y2="662.381" gradientUnits="userSpaceOnUse">
<stop stop-color="#F7DD43"/>
<stop offset="1" stop-color="#F7DD43" stop-opacity="0"/>
</linearGradient>
<linearGradient id="paint26_linear_122_130" x1="73.5" y1="351" x2="73.5" y2="662.381" gradientUnits="userSpaceOnUse">
<stop stop-color="#F7DD43"/>
<stop offset="1" stop-color="#F7DD43" stop-opacity="0"/>
</linearGradient>
<linearGradient id="paint27_linear_122_130" x1="73.5" y1="351" x2="73.5" y2="662.381" gradientUnits="userSpaceOnUse">
<stop stop-color="#F7DD43"/>
<stop offset="1" stop-color="#F7DD43" stop-opacity="0"/>
</linearGradient>
<linearGradient id="paint28_linear_122_130" x1="73.5" y1="351" x2="73.5" y2="662.381" gradientUnits="userSpaceOnUse">
<stop stop-color="#F7DD43"/>
<stop offset="1" stop-color="#F7DD43" stop-opacity="0"/>
</linearGradient>
<linearGradient id="paint29_linear_122_130" x1="73.5" y1="351" x2="73.5" y2="662.381" gradientUnits="userSpaceOnUse">
<stop stop-color="#F7DD43"/>
<stop offset="1" stop-color="#F7DD43" stop-opacity="0"/>
</linearGradient>
<linearGradient id="paint30_linear_122_130" x1="73.5" y1="351" x2="73.5" y2="662.381" gradientUnits="userSpaceOnUse">
<stop stop-color="#F7DD43"/>
<stop offset="1" stop-color="#F7DD43" stop-opacity="0"/>
</linearGradient>
<linearGradient id="paint31_linear_122_130" x1="73.5" y1="351" x2="73.5" y2="662.381" gradientUnits="userSpaceOnUse">
<stop stop-color="#F7DD43"/>
<stop offset="1" stop-color="#F7DD43" stop-opacity="0"/>
</linearGradient>
<linearGradient id="paint32_linear_122_130" x1="73.5" y1="351" x2="73.5" y2="662.381" gradientUnits="userSpaceOnUse">
<stop stop-color="#F7DD43"/>
<stop offset="1" stop-color="#F7DD43" stop-opacity="0"/>
</linearGradient>
<linearGradient id="paint33_linear_122_130" x1="73.5" y1="351" x2="73.5" y2="662.381" gradientUnits="userSpaceOnUse">
<stop stop-color="#F7DD43"/>
<stop offset="1" stop-color="#F7DD43" stop-opacity="0"/>
</linearGradient>
<linearGradient id="paint34_linear_122_130" x1="73.5" y1="351" x2="73.5" y2="662.381" gradientUnits="userSpaceOnUse">
<stop stop-color="#F7DD43"/>
<stop offset="1" stop-color="#F7DD43" stop-opacity="0"/>
</linearGradient>
<linearGradient id="paint35_linear_122_130" x1="73.5" y1="351" x2="73.5" y2="662.381" gradientUnits="userSpaceOnUse">
<stop stop-color="#F7DD43"/>
<stop offset="1" stop-color="#F7DD43" stop-opacity="0"/>
</linearGradient>
<linearGradient id="paint36_linear_122_130" x1="73.5" y1="351" x2="73.5" y2="662.381" gradientUnits="userSpaceOnUse">
<stop stop-color="#F7DD43"/>
<stop offset="1" stop-color="#F7DD43" stop-opacity="0"/>
</linearGradient>
<linearGradient id="paint37_linear_122_130" x1="73.5" y1="351" x2="73.5" y2="662.381" gradientUnits="userSpaceOnUse">
<stop stop-color="#F7DD43"/>
<stop offset="1" stop-color="#F7DD43" stop-opacity="0"/>
</linearGradient>
<linearGradient id="paint38_linear_122_130" x1="73.5" y1="351" x2="73.5" y2="662.381" gradientUnits="userSpaceOnUse">
<stop stop-color="#F7DD43"/>
<stop offset="1" stop-color="#F7DD43" stop-opacity="0"/>
</linearGradient>
<linearGradient id="paint39_linear_122_130" x1="73.5" y1="351" x2="73.5" y2="662.381" gradientUnits="userSpaceOnUse">
<stop stop-color="#F7DD43"/>
<stop offset="1" stop-color="#F7DD43" stop-opacity="0"/>
</linearGradient>
<linearGradient id="paint40_linear_122_130" x1="73.5" y1="351" x2="73.5" y2="662.381" gradientUnits="userSpaceOnUse">
<stop stop-color="#F7DD43"/>
<stop offset="1" stop-color="#F7DD43" stop-opacity="0"/>
</linearGradient>
<linearGradient id="paint41_linear_122_130" x1="73.5" y1="351" x2="73.5" y2="662.381" gradientUnits="userSpaceOnUse">
<stop stop-color="#F7DD43"/>
<stop offset="1" stop-color="#F7DD43" stop-opacity="0"/>
</linearGradient>
<linearGradient id="paint42_linear_122_130" x1="73.5" y1="351" x2="73.5" y2="662.381" gradientUnits="userSpaceOnUse">
<stop stop-color="#F7DD43"/>
<stop offset="1" stop-color="#F7DD43" stop-opacity="0"/>
</linearGradient>
<linearGradient id="paint43_linear_122_130" x1="73.5" y1="351" x2="73.5" y2="662.381" gradientUnits="userSpaceOnUse">
<stop stop-color="#F7DD43"/>
<stop offset="1" stop-color="#F7DD43" stop-opacity="0"/>
</linearGradient>
<linearGradient id="paint44_linear_122_130" x1="73.5" y1="351" x2="73.5" y2="662.381" gradientUnits="userSpaceOnUse">
<stop stop-color="#F7DD43"/>
<stop offset="1" stop-color="#F7DD43" stop-opacity="0"/>
</linearGradient>
<linearGradient id="paint45_linear_122_130" x1="73.5" y1="351" x2="73.5" y2="662.381" gradientUnits="userSpaceOnUse">
<stop stop-color="#F7DD43"/>
<stop offset="1" stop-color="#F7DD43" stop-opacity="0"/>
</linearGradient>
<linearGradient id="paint46_linear_122_130" x1="73.5" y1="351" x2="73.5" y2="662.381" gradientUnits="userSpaceOnUse">
<stop stop-color="#F7DD43"/>
<stop offset="1" stop-color="#F7DD43" stop-opacity="0"/>
</linearGradient>
<linearGradient id="paint47_linear_122_130" x1="959.5" y1="51" x2="959.5" y2="349.818" gradientUnits="userSpaceOnUse">
<stop stop-color="#F7DD43"/>
<stop offset="1" stop-color="#F7DD43" stop-opacity="0"/>
</linearGradient>
<linearGradient id="paint48_linear_122_130" x1="959.5" y1="51" x2="959.5" y2="349.818" gradientUnits="userSpaceOnUse">
<stop stop-color="#F7DD43"/>
<stop offset="1" stop-color="#F7DD43" stop-opacity="0"/>
</linearGradient>
<linearGradient id="paint49_linear_122_130" x1="959.5" y1="51" x2="959.5" y2="349.818" gradientUnits="userSpaceOnUse">
<stop stop-color="#F7DD43"/>
<stop offset="1" stop-color="#F7DD43" stop-opacity="0"/>
</linearGradient>
<linearGradient id="paint50_linear_122_130" x1="959.5" y1="51" x2="959.5" y2="349.818" gradientUnits="userSpaceOnUse">
<stop stop-color="#F7DD43"/>
<stop offset="1" stop-color="#F7DD43" stop-opacity="0"/>
</linearGradient>
<linearGradient id="paint51_linear_122_130" x1="959.5" y1="51" x2="959.5" y2="349.818" gradientUnits="userSpaceOnUse">
<stop stop-color="#F7DD43"/>
<stop offset="1" stop-color="#F7DD43" stop-opacity="0"/>
</linearGradient>
<linearGradient id="paint52_linear_122_130" x1="959.5" y1="51" x2="959.5" y2="349.818" gradientUnits="userSpaceOnUse">
<stop stop-color="#F7DD43"/>
<stop offset="1" stop-color="#F7DD43" stop-opacity="0"/>
</linearGradient>
<linearGradient id="paint53_linear_122_130" x1="959.5" y1="51" x2="959.5" y2="349.818" gradientUnits="userSpaceOnUse">
<stop stop-color="#F7DD43"/>
<stop offset="1" stop-color="#F7DD43" stop-opacity="0"/>
</linearGradient>
<linearGradient id="paint54_linear_122_130" x1="959.5" y1="51" x2="959.5" y2="349.818" gradientUnits="userSpaceOnUse">
<stop stop-color="#F7DD43"/>
<stop offset="1" stop-color="#F7DD43" stop-opacity="0"/>
</linearGradient>
<linearGradient id="paint55_linear_122_130" x1="959.5" y1="51" x2="959.5" y2="349.818" gradientUnits="userSpaceOnUse">
<stop stop-color="#F7DD43"/>
<stop offset="1" stop-color="#F7DD43" stop-opacity="0"/>
</linearGradient>
<linearGradient id="paint56_linear_122_130" x1="959.5" y1="51" x2="959.5" y2="349.818" gradientUnits="userSpaceOnUse">
<stop stop-color="#F7DD43"/>
<stop offset="1" stop-color="#F7DD43" stop-opacity="0"/>
</linearGradient>
<linearGradient id="paint57_linear_122_130" x1="959.5" y1="51" x2="959.5" y2="349.818" gradientUnits="userSpaceOnUse">
<stop stop-color="#F7DD43"/>
<stop offset="1" stop-color="#F7DD43" stop-opacity="0"/>
</linearGradient>
<linearGradient id="paint58_linear_122_130" x1="959.5" y1="51" x2="959.5" y2="349.818" gradientUnits="userSpaceOnUse">
<stop stop-color="#F7DD43"/>
<stop offset="1" stop-color="#F7DD43" stop-opacity="0"/>
</linearGradient>
<linearGradient id="paint59_linear_122_130" x1="959.5" y1="51" x2="959.5" y2="349.818" gradientUnits="userSpaceOnUse">
<stop stop-color="#F7DD43"/>
<stop offset="1" stop-color="#F7DD43" stop-opacity="0"/>
</linearGradient>
<linearGradient id="paint60_linear_122_130" x1="959.5" y1="51" x2="959.5" y2="349.818" gradientUnits="userSpaceOnUse">
<stop stop-color="#F7DD43"/>
<stop offset="1" stop-color="#F7DD43" stop-opacity="0"/>
</linearGradient>
<linearGradient id="paint61_linear_122_130" x1="959.5" y1="51" x2="959.5" y2="349.818" gradientUnits="userSpaceOnUse">
<stop stop-color="#F7DD43"/>
<stop offset="1" stop-color="#F7DD43" stop-opacity="0"/>
</linearGradient>
<linearGradient id="paint62_linear_122_130" x1="959.5" y1="51" x2="959.5" y2="349.818" gradientUnits="userSpaceOnUse">
<stop stop-color="#F7DD43"/>
<stop offset="1" stop-color="#F7DD43" stop-opacity="0"/>
</linearGradient>
<linearGradient id="paint63_linear_122_130" x1="959.5" y1="51" x2="959.5" y2="349.818" gradientUnits="userSpaceOnUse">
<stop stop-color="#F7DD43"/>
<stop offset="1" stop-color="#F7DD43" stop-opacity="0"/>
</linearGradient>
<linearGradient id="paint64_linear_122_130" x1="959.5" y1="51" x2="959.5" y2="349.818" gradientUnits="userSpaceOnUse">
<stop stop-color="#F7DD43"/>
<stop offset="1" stop-color="#F7DD43" stop-opacity="0"/>
</linearGradient>
<linearGradient id="paint65_linear_122_130" x1="959.5" y1="51" x2="959.5" y2="349.818" gradientUnits="userSpaceOnUse">
<stop stop-color="#F7DD43"/>
<stop offset="1" stop-color="#F7DD43" stop-opacity="0"/>
</linearGradient>
<linearGradient id="paint66_linear_122_130" x1="959.5" y1="51" x2="959.5" y2="349.818" gradientUnits="userSpaceOnUse">
<stop stop-color="#F7DD43"/>
<stop offset="1" stop-color="#F7DD43" stop-opacity="0"/>
</linearGradient>
<linearGradient id="paint67_linear_122_130" x1="959.5" y1="51" x2="959.5" y2="349.818" gradientUnits="userSpaceOnUse">
<stop stop-color="#F7DD43"/>
<stop offset="1" stop-color="#F7DD43" stop-opacity="0"/>
</linearGradient>
<linearGradient id="paint68_linear_122_130" x1="959.5" y1="51" x2="959.5" y2="349.818" gradientUnits="userSpaceOnUse">
<stop stop-color="#F7DD43"/>
<stop offset="1" stop-color="#F7DD43" stop-opacity="0"/>
</linearGradient>
<linearGradient id="paint69_linear_122_130" x1="959.5" y1="51" x2="959.5" y2="349.818" gradientUnits="userSpaceOnUse">
<stop stop-color="#F7DD43"/>
<stop offset="1" stop-color="#F7DD43" stop-opacity="0"/>
</linearGradient>
<linearGradient id="paint70_linear_122_130" x1="959.5" y1="51" x2="959.5" y2="349.818" gradientUnits="userSpaceOnUse">
<stop stop-color="#F7DD43"/>
<stop offset="1" stop-color="#F7DD43" stop-opacity="0"/>
</linearGradient>
<linearGradient id="paint71_linear_122_130" x1="959.5" y1="51" x2="959.5" y2="349.818" gradientUnits="userSpaceOnUse">
<stop stop-color="#F7DD43"/>
<stop offset="1" stop-color="#F7DD43" stop-opacity="0"/>
</linearGradient>
<linearGradient id="paint72_linear_122_130" x1="959.5" y1="51" x2="959.5" y2="349.818" gradientUnits="userSpaceOnUse">
<stop stop-color="#F7DD43"/>
<stop offset="1" stop-color="#F7DD43" stop-opacity="0"/>
</linearGradient>
<linearGradient id="paint73_linear_122_130" x1="959.5" y1="51" x2="959.5" y2="349.818" gradientUnits="userSpaceOnUse">
<stop stop-color="#F7DD43"/>
<stop offset="1" stop-color="#F7DD43" stop-opacity="0"/>
</linearGradient>
<linearGradient id="paint74_linear_122_130" x1="959.5" y1="51" x2="959.5" y2="349.818" gradientUnits="userSpaceOnUse">
<stop stop-color="#F7DD43"/>
<stop offset="1" stop-color="#F7DD43" stop-opacity="0"/>
</linearGradient>
<linearGradient id="paint75_linear_122_130" x1="959.5" y1="51" x2="959.5" y2="349.818" gradientUnits="userSpaceOnUse">
<stop stop-color="#F7DD43"/>
<stop offset="1" stop-color="#F7DD43" stop-opacity="0"/>
</linearGradient>
<linearGradient id="paint76_linear_122_130" x1="959.5" y1="51" x2="959.5" y2="349.818" gradientUnits="userSpaceOnUse">
<stop stop-color="#F7DD43"/>
<stop offset="1" stop-color="#F7DD43" stop-opacity="0"/>
</linearGradient>
<linearGradient id="paint77_linear_122_130" x1="959.5" y1="51" x2="959.5" y2="349.818" gradientUnits="userSpaceOnUse">
<stop stop-color="#F7DD43"/>
<stop offset="1" stop-color="#F7DD43" stop-opacity="0"/>
</linearGradient>
<linearGradient id="paint78_linear_122_130" x1="959.5" y1="51" x2="959.5" y2="349.818" gradientUnits="userSpaceOnUse">
<stop stop-color="#F7DD43"/>
<stop offset="1" stop-color="#F7DD43" stop-opacity="0"/>
</linearGradient>
<linearGradient id="paint79_linear_122_130" x1="959.5" y1="51" x2="959.5" y2="349.818" gradientUnits="userSpaceOnUse">
<stop stop-color="#F7DD43"/>
<stop offset="1" stop-color="#F7DD43" stop-opacity="0"/>
</linearGradient>
<linearGradient id="paint80_linear_122_130" x1="959.5" y1="51" x2="959.5" y2="349.818" gradientUnits="userSpaceOnUse">
<stop stop-color="#F7DD43"/>
<stop offset="1" stop-color="#F7DD43" stop-opacity="0"/>
</linearGradient>
<linearGradient id="paint81_linear_122_130" x1="959.5" y1="51" x2="959.5" y2="349.818" gradientUnits="userSpaceOnUse">
<stop stop-color="#F7DD43"/>
<stop offset="1" stop-color="#F7DD43" stop-opacity="0"/>
</linearGradient>
<linearGradient id="paint82_linear_122_130" x1="959.5" y1="51" x2="959.5" y2="349.818" gradientUnits="userSpaceOnUse">
<stop stop-color="#F7DD43"/>
<stop offset="1" stop-color="#F7DD43" stop-opacity="0"/>
</linearGradient>
<linearGradient id="paint83_linear_122_130" x1="959.5" y1="51" x2="959.5" y2="349.818" gradientUnits="userSpaceOnUse">
<stop stop-color="#F7DD43"/>
<stop offset="1" stop-color="#F7DD43" stop-opacity="0"/>
</linearGradient>
<linearGradient id="paint84_linear_122_130" x1="959.5" y1="51" x2="959.5" y2="349.818" gradientUnits="userSpaceOnUse">
<stop stop-color="#F7DD43"/>
<stop offset="1" stop-color="#F7DD43" stop-opacity="0"/>
</linearGradient>
<linearGradient id="paint85_linear_122_130" x1="959.5" y1="51" x2="959.5" y2="349.818" gradientUnits="userSpaceOnUse">
<stop stop-color="#F7DD43"/>
<stop offset="1" stop-color="#F7DD43" stop-opacity="0"/>
</linearGradient>
<linearGradient id="paint86_linear_122_130" x1="959.5" y1="51" x2="959.5" y2="349.818" gradientUnits="userSpaceOnUse">
<stop stop-color="#F7DD43"/>
<stop offset="1" stop-color="#F7DD43" stop-opacity="0"/>
</linearGradient>
<linearGradient id="paint87_linear_122_130" x1="959.5" y1="51" x2="959.5" y2="349.818" gradientUnits="userSpaceOnUse">
<stop stop-color="#F7DD43"/>
<stop offset="1" stop-color="#F7DD43" stop-opacity="0"/>
</linearGradient>
<linearGradient id="paint88_linear_122_130" x1="959.5" y1="51" x2="959.5" y2="349.818" gradientUnits="userSpaceOnUse">
<stop stop-color="#F7DD43"/>
<stop offset="1" stop-color="#F7DD43" stop-opacity="0"/>
</linearGradient>
<linearGradient id="paint89_linear_122_130" x1="959.5" y1="51" x2="959.5" y2="349.818" gradientUnits="userSpaceOnUse">
<stop stop-color="#F7DD43"/>
<stop offset="1" stop-color="#F7DD43" stop-opacity="0"/>
</linearGradient>
<linearGradient id="paint90_linear_122_130" x1="959.5" y1="51" x2="959.5" y2="349.818" gradientUnits="userSpaceOnUse">
<stop stop-color="#F7DD43"/>
<stop offset="1" stop-color="#F7DD43" stop-opacity="0"/>
</linearGradient>
<linearGradient id="paint91_linear_122_130" x1="959.5" y1="51" x2="959.5" y2="349.818" gradientUnits="userSpaceOnUse">
<stop stop-color="#F7DD43"/>
<stop offset="1" stop-color="#F7DD43" stop-opacity="0"/>
</linearGradient>
<linearGradient id="paint92_linear_122_130" x1="959.5" y1="51" x2="959.5" y2="349.818" gradientUnits="userSpaceOnUse">
<stop stop-color="#F7DD43"/>
<stop offset="1" stop-color="#F7DD43" stop-opacity="0"/>
</linearGradient>
<linearGradient id="paint93_linear_122_130" x1="959.5" y1="51" x2="959.5" y2="349.818" gradientUnits="userSpaceOnUse">
<stop stop-color="#F7DD43"/>
<stop offset="1" stop-color="#F7DD43" stop-opacity="0"/>
</linearGradient>
<clipPath id="clip0_122_130">
<rect width="1024" height="753" fill="white"/>
</clipPath>
</defs>
</svg>
